<svg id="visual" viewBox="0 0 960 540" width="960" height="540" xmlns="http://www.w3.org/2000/svg" xmlns:xlink="http://www.w3.org/1999/xlink" version="1.1"><rect x="0" y="0" width="960" height="540" fill="#F7EFE5"></rect><defs><linearGradient id="grad1_0" x1="43.8%" y1="0%" x2="100%" y2="100%"><stop offset="14.444444444444446%" stop-color="#f7efe5" stop-opacity="1"></stop><stop offset="85.55555555555554%" stop-color="#f7efe5" stop-opacity="1"></stop></linearGradient></defs><defs><linearGradient id="grad2_0" x1="0%" y1="0%" x2="56.3%" y2="100%"><stop offset="14.444444444444446%" stop-color="#f7efe5" stop-opacity="1"></stop><stop offset="85.55555555555554%" stop-color="#f7efe5" stop-opacity="1"></stop></linearGradient></defs><g transform="translate(960, 0)"><path d="M0 81C-10.9 80.1 -21.8 79.3 -31 74.8C-40.2 70.4 -47.8 62.4 -54.4 54.4C-61.1 46.5 -66.9 38.5 -71.1 29.5C-75.4 20.4 -78.2 10.2 -81 0L0 0Z" fill="#C3ACD0"></path></g><g transform="translate(0, 540)"><path d="M0 -81C9.8 -77.2 19.6 -73.4 28.7 -69.3C37.8 -65.1 46.3 -60.6 54.4 -54.4C62.6 -48.2 70.5 -40.4 74.8 -31C79.2 -21.6 80.1 -10.8 81 0L0 0Z" fill="#C3ACD0"></path></g></svg>